<svg t="1756021931990" class="icon" viewBox="0 0 1024 1024" version="1.1" xmlns="http://www.w3.org/2000/svg" p-id="5870" width="200" height="200"><path d="M1001.6 873.6c0 19.2-12.8 32-32 32H54.4c-19.2 0-32-12.8-32-32s12.8-32 32-32h918.4c16 0 28.8 16 28.8 32zM512 105.6c64 0 118.4 51.2 118.4 118.4 0 22.4-6.4 44.8-19.2 64 192 44.8 336 214.4 339.2 419.2v6.4h22.4c19.2 0 32 12.8 32 32s-12.8 32-32 32H54.4c-19.2 0-32-12.8-32-32s12.8-32 32-32h22.4C76.8 505.6 220.8 332.8 416 288c-35.2-54.4-19.2-128 35.2-163.2 16-12.8 38.4-19.2 60.8-19.2z m0 236.8c-204.8 0-368 163.2-374.4 364.8v6.4h745.6c3.2-204.8-166.4-371.2-371.2-371.2z m150.4 99.2c70.4 35.2 105.6 89.6 121.6 121.6 9.6 16 0 38.4-19.2 44.8-16 6.4-35.2 0-41.6-16-28.8-51.2-67.2-80-96-96-12.8-9.6-19.2-25.6-12.8-41.6 9.6-12.8 32-19.2 48-12.8zM512 169.6c-28.8 0-54.4 22.4-54.4 54.4S480 278.4 512 278.4c28.8 0 54.4-22.4 54.4-54.4 0-28.8-25.6-54.4-54.4-54.4z" p-id="5871" fill="#1296db"></path></svg>